<?xml version="1.0" encoding="utf-8"?>
<svg version="1.1" xmlns="http://www.w3.org/2000/svg" width="32" height="32" viewBox="0 0 32 32">
	<rect width="32" height="32" fill="#000000" rx="4"/>
	<path d="M16,2C8.268,2,2,8.268,2,16v14c2.336,0,2.336-4,4.666-4s2.336,4,4.666,4s2.336-4,4.666-4s2.336,4,4.666,4s2.336-4,4.666-4s2.336,4,4.666,4V16C30,8.268,23.732,2,16,2z M12,16.5c-1.38,0-2.5-1.12-2.5-2.5s1.12-2.5,2.5-2.5s2.5,1.12,2.5,2.5S13.38,16.5,12,16.5z M20,16.5c-1.38,0-2.5-1.12-2.5-2.5s1.12-2.5,2.5-2.5s2.5,1.12,2.5,2.5S21.38,16.5,20,16.5z" fill="#ffffff" transform="translate(0, 0) scale(1)"/>
</svg>
